<?xml version="1.0" encoding="UTF-8" standalone="no"?>
<!-- Created with Inkscape (http://www.inkscape.org/) -->

<svg
   xmlns:dc="http://purl.org/dc/elements/1.1/"
   xmlns:cc="http://creativecommons.org/ns#"
   xmlns:rdf="http://www.w3.org/1999/02/22-rdf-syntax-ns#"
   xmlns:svg="http://www.w3.org/2000/svg"
   xmlns="http://www.w3.org/2000/svg"
   xmlns:sodipodi="http://sodipodi.sourceforge.net/DTD/sodipodi-0.dtd"
   xmlns:inkscape="http://www.inkscape.org/namespaces/inkscape"
   width="744.09448819"
   height="1052.3622047"
   id="svg2"
   version="1.1"
   inkscape:version="0.47 r22583"
   sodipodi:docname="logo6.svg"
   inkscape:export-filename="/home/che/sites/hackerspace/src/logo.png"
   inkscape:export-xdpi="68.437508"
   inkscape:export-ydpi="68.437508">
  <defs
     id="defs4">
    <inkscape:perspective
       sodipodi:type="inkscape:persp3d"
       inkscape:vp_x="0 : 526.18109 : 1"
       inkscape:vp_y="0 : 1000 : 0"
       inkscape:vp_z="744.09448 : 526.18109 : 1"
       inkscape:persp3d-origin="372.04724 : 350.78739 : 1"
       id="perspective10" />
    <inkscape:perspective
       id="perspective3608"
       inkscape:persp3d-origin="0.5 : 0.33333333 : 1"
       inkscape:vp_z="1 : 0.5 : 1"
       inkscape:vp_y="0 : 1000 : 0"
       inkscape:vp_x="0 : 0.5 : 1"
       sodipodi:type="inkscape:persp3d" />
    <inkscape:perspective
       id="perspective3608-7"
       inkscape:persp3d-origin="0.5 : 0.33333333 : 1"
       inkscape:vp_z="1 : 0.5 : 1"
       inkscape:vp_y="0 : 1000 : 0"
       inkscape:vp_x="0 : 0.5 : 1"
       sodipodi:type="inkscape:persp3d" />
    <inkscape:perspective
       id="perspective3608-6"
       inkscape:persp3d-origin="0.5 : 0.33333333 : 1"
       inkscape:vp_z="1 : 0.5 : 1"
       inkscape:vp_y="0 : 1000 : 0"
       inkscape:vp_x="0 : 0.5 : 1"
       sodipodi:type="inkscape:persp3d" />
    <inkscape:perspective
       id="perspective3669"
       inkscape:persp3d-origin="0.5 : 0.33333333 : 1"
       inkscape:vp_z="1 : 0.5 : 1"
       inkscape:vp_y="0 : 1000 : 0"
       inkscape:vp_x="0 : 0.5 : 1"
       sodipodi:type="inkscape:persp3d" />
    <inkscape:perspective
       id="perspective3767"
       inkscape:persp3d-origin="0.5 : 0.33333333 : 1"
       inkscape:vp_z="1 : 0.5 : 1"
       inkscape:vp_y="0 : 1000 : 0"
       inkscape:vp_x="0 : 0.5 : 1"
       sodipodi:type="inkscape:persp3d" />
    <inkscape:perspective
       id="perspective3789"
       inkscape:persp3d-origin="0.5 : 0.33333333 : 1"
       inkscape:vp_z="1 : 0.5 : 1"
       inkscape:vp_y="0 : 1000 : 0"
       inkscape:vp_x="0 : 0.5 : 1"
       sodipodi:type="inkscape:persp3d" />
    <inkscape:perspective
       id="perspective3811"
       inkscape:persp3d-origin="0.5 : 0.33333333 : 1"
       inkscape:vp_z="1 : 0.5 : 1"
       inkscape:vp_y="0 : 1000 : 0"
       inkscape:vp_x="0 : 0.5 : 1"
       sodipodi:type="inkscape:persp3d" />
    <inkscape:perspective
       id="perspective3833"
       inkscape:persp3d-origin="0.5 : 0.33333333 : 1"
       inkscape:vp_z="1 : 0.5 : 1"
       inkscape:vp_y="0 : 1000 : 0"
       inkscape:vp_x="0 : 0.5 : 1"
       sodipodi:type="inkscape:persp3d" />
    <inkscape:perspective
       id="perspective3862"
       inkscape:persp3d-origin="0.5 : 0.33333333 : 1"
       inkscape:vp_z="1 : 0.5 : 1"
       inkscape:vp_y="0 : 1000 : 0"
       inkscape:vp_x="0 : 0.5 : 1"
       sodipodi:type="inkscape:persp3d" />
    <inkscape:perspective
       id="perspective3884"
       inkscape:persp3d-origin="0.5 : 0.33333333 : 1"
       inkscape:vp_z="1 : 0.5 : 1"
       inkscape:vp_y="0 : 1000 : 0"
       inkscape:vp_x="0 : 0.5 : 1"
       sodipodi:type="inkscape:persp3d" />
    <inkscape:perspective
       id="perspective3912"
       inkscape:persp3d-origin="0.5 : 0.33333333 : 1"
       inkscape:vp_z="1 : 0.5 : 1"
       inkscape:vp_y="0 : 1000 : 0"
       inkscape:vp_x="0 : 0.5 : 1"
       sodipodi:type="inkscape:persp3d" />
    <inkscape:perspective
       id="perspective3955"
       inkscape:persp3d-origin="0.5 : 0.33333333 : 1"
       inkscape:vp_z="1 : 0.5 : 1"
       inkscape:vp_y="0 : 1000 : 0"
       inkscape:vp_x="0 : 0.5 : 1"
       sodipodi:type="inkscape:persp3d" />
    <inkscape:perspective
       id="perspective4011"
       inkscape:persp3d-origin="0.5 : 0.33333333 : 1"
       inkscape:vp_z="1 : 0.5 : 1"
       inkscape:vp_y="0 : 1000 : 0"
       inkscape:vp_x="0 : 0.5 : 1"
       sodipodi:type="inkscape:persp3d" />
    <inkscape:perspective
       id="perspective4050"
       inkscape:persp3d-origin="0.5 : 0.33333333 : 1"
       inkscape:vp_z="1 : 0.5 : 1"
       inkscape:vp_y="0 : 1000 : 0"
       inkscape:vp_x="0 : 0.5 : 1"
       sodipodi:type="inkscape:persp3d" />
    <inkscape:perspective
       id="perspective4084"
       inkscape:persp3d-origin="0.5 : 0.33333333 : 1"
       inkscape:vp_z="1 : 0.5 : 1"
       inkscape:vp_y="0 : 1000 : 0"
       inkscape:vp_x="0 : 0.5 : 1"
       sodipodi:type="inkscape:persp3d" />
    <inkscape:perspective
       id="perspective4118"
       inkscape:persp3d-origin="0.5 : 0.33333333 : 1"
       inkscape:vp_z="1 : 0.5 : 1"
       inkscape:vp_y="0 : 1000 : 0"
       inkscape:vp_x="0 : 0.5 : 1"
       sodipodi:type="inkscape:persp3d" />
    <inkscape:perspective
       id="perspective4152"
       inkscape:persp3d-origin="0.5 : 0.33333333 : 1"
       inkscape:vp_z="1 : 0.5 : 1"
       inkscape:vp_y="0 : 1000 : 0"
       inkscape:vp_x="0 : 0.5 : 1"
       sodipodi:type="inkscape:persp3d" />
    <inkscape:perspective
       id="perspective4175"
       inkscape:persp3d-origin="0.5 : 0.33333333 : 1"
       inkscape:vp_z="1 : 0.5 : 1"
       inkscape:vp_y="0 : 1000 : 0"
       inkscape:vp_x="0 : 0.5 : 1"
       sodipodi:type="inkscape:persp3d" />
    <inkscape:perspective
       id="perspective4197"
       inkscape:persp3d-origin="0.5 : 0.33333333 : 1"
       inkscape:vp_z="1 : 0.5 : 1"
       inkscape:vp_y="0 : 1000 : 0"
       inkscape:vp_x="0 : 0.5 : 1"
       sodipodi:type="inkscape:persp3d" />
    <inkscape:perspective
       id="perspective4222"
       inkscape:persp3d-origin="0.5 : 0.33333333 : 1"
       inkscape:vp_z="1 : 0.5 : 1"
       inkscape:vp_y="0 : 1000 : 0"
       inkscape:vp_x="0 : 0.5 : 1"
       sodipodi:type="inkscape:persp3d" />
    <inkscape:perspective
       id="perspective4263"
       inkscape:persp3d-origin="0.5 : 0.33333333 : 1"
       inkscape:vp_z="1 : 0.5 : 1"
       inkscape:vp_y="0 : 1000 : 0"
       inkscape:vp_x="0 : 0.5 : 1"
       sodipodi:type="inkscape:persp3d" />
    <inkscape:perspective
       id="perspective4297"
       inkscape:persp3d-origin="0.5 : 0.33333333 : 1"
       inkscape:vp_z="1 : 0.5 : 1"
       inkscape:vp_y="0 : 1000 : 0"
       inkscape:vp_x="0 : 0.5 : 1"
       sodipodi:type="inkscape:persp3d" />
    <inkscape:perspective
       id="perspective4321"
       inkscape:persp3d-origin="0.5 : 0.33333333 : 1"
       inkscape:vp_z="1 : 0.5 : 1"
       inkscape:vp_y="0 : 1000 : 0"
       inkscape:vp_x="0 : 0.5 : 1"
       sodipodi:type="inkscape:persp3d" />
    <inkscape:perspective
       id="perspective4345"
       inkscape:persp3d-origin="0.5 : 0.33333333 : 1"
       inkscape:vp_z="1 : 0.5 : 1"
       inkscape:vp_y="0 : 1000 : 0"
       inkscape:vp_x="0 : 0.5 : 1"
       sodipodi:type="inkscape:persp3d" />
    <inkscape:perspective
       id="perspective4367"
       inkscape:persp3d-origin="0.5 : 0.33333333 : 1"
       inkscape:vp_z="1 : 0.5 : 1"
       inkscape:vp_y="0 : 1000 : 0"
       inkscape:vp_x="0 : 0.5 : 1"
       sodipodi:type="inkscape:persp3d" />
    <inkscape:perspective
       id="perspective4415"
       inkscape:persp3d-origin="0.5 : 0.33333333 : 1"
       inkscape:vp_z="1 : 0.5 : 1"
       inkscape:vp_y="0 : 1000 : 0"
       inkscape:vp_x="0 : 0.5 : 1"
       sodipodi:type="inkscape:persp3d" />
    <inkscape:perspective
       id="perspective4461"
       inkscape:persp3d-origin="0.5 : 0.33333333 : 1"
       inkscape:vp_z="1 : 0.5 : 1"
       inkscape:vp_y="0 : 1000 : 0"
       inkscape:vp_x="0 : 0.5 : 1"
       sodipodi:type="inkscape:persp3d" />
    <inkscape:perspective
       id="perspective4515"
       inkscape:persp3d-origin="0.5 : 0.33333333 : 1"
       inkscape:vp_z="1 : 0.5 : 1"
       inkscape:vp_y="0 : 1000 : 0"
       inkscape:vp_x="0 : 0.5 : 1"
       sodipodi:type="inkscape:persp3d" />
    <inkscape:perspective
       id="perspective4578"
       inkscape:persp3d-origin="0.5 : 0.33333333 : 1"
       inkscape:vp_z="1 : 0.5 : 1"
       inkscape:vp_y="0 : 1000 : 0"
       inkscape:vp_x="0 : 0.5 : 1"
       sodipodi:type="inkscape:persp3d" />
    <inkscape:perspective
       id="perspective4600"
       inkscape:persp3d-origin="0.5 : 0.33333333 : 1"
       inkscape:vp_z="1 : 0.5 : 1"
       inkscape:vp_y="0 : 1000 : 0"
       inkscape:vp_x="0 : 0.5 : 1"
       sodipodi:type="inkscape:persp3d" />
    <inkscape:perspective
       id="perspective4600-3"
       inkscape:persp3d-origin="0.5 : 0.33333333 : 1"
       inkscape:vp_z="1 : 0.5 : 1"
       inkscape:vp_y="0 : 1000 : 0"
       inkscape:vp_x="0 : 0.5 : 1"
       sodipodi:type="inkscape:persp3d" />
    <inkscape:perspective
       id="perspective2828"
       inkscape:persp3d-origin="0.5 : 0.33333333 : 1"
       inkscape:vp_z="1 : 0.5 : 1"
       inkscape:vp_y="0 : 1000 : 0"
       inkscape:vp_x="0 : 0.5 : 1"
       sodipodi:type="inkscape:persp3d" />
    <inkscape:perspective
       id="perspective2948"
       inkscape:persp3d-origin="0.5 : 0.33333333 : 1"
       inkscape:vp_z="1 : 0.5 : 1"
       inkscape:vp_y="0 : 1000 : 0"
       inkscape:vp_x="0 : 0.5 : 1"
       sodipodi:type="inkscape:persp3d" />
    <inkscape:perspective
       id="perspective2889"
       inkscape:persp3d-origin="0.5 : 0.33333333 : 1"
       inkscape:vp_z="1 : 0.5 : 1"
       inkscape:vp_y="0 : 1000 : 0"
       inkscape:vp_x="0 : 0.5 : 1"
       sodipodi:type="inkscape:persp3d" />
    <inkscape:perspective
       id="perspective2911"
       inkscape:persp3d-origin="0.5 : 0.33333333 : 1"
       inkscape:vp_z="1 : 0.5 : 1"
       inkscape:vp_y="0 : 1000 : 0"
       inkscape:vp_x="0 : 0.5 : 1"
       sodipodi:type="inkscape:persp3d" />
    <inkscape:perspective
       id="perspective3733"
       inkscape:persp3d-origin="0.5 : 0.33333333 : 1"
       inkscape:vp_z="1 : 0.5 : 1"
       inkscape:vp_y="0 : 1000 : 0"
       inkscape:vp_x="0 : 0.5 : 1"
       sodipodi:type="inkscape:persp3d" />
    <inkscape:perspective
       id="perspective3789-2"
       inkscape:persp3d-origin="0.5 : 0.33333333 : 1"
       inkscape:vp_z="1 : 0.5 : 1"
       inkscape:vp_y="0 : 1000 : 0"
       inkscape:vp_x="0 : 0.5 : 1"
       sodipodi:type="inkscape:persp3d" />
    <inkscape:perspective
       id="perspective3817"
       inkscape:persp3d-origin="0.5 : 0.33333333 : 1"
       inkscape:vp_z="1 : 0.5 : 1"
       inkscape:vp_y="0 : 1000 : 0"
       inkscape:vp_x="0 : 0.5 : 1"
       sodipodi:type="inkscape:persp3d" />
    <inkscape:perspective
       id="perspective3817-5"
       inkscape:persp3d-origin="0.5 : 0.33333333 : 1"
       inkscape:vp_z="1 : 0.5 : 1"
       inkscape:vp_y="0 : 1000 : 0"
       inkscape:vp_x="0 : 0.5 : 1"
       sodipodi:type="inkscape:persp3d" />
    <inkscape:perspective
       id="perspective3817-6"
       inkscape:persp3d-origin="0.5 : 0.33333333 : 1"
       inkscape:vp_z="1 : 0.5 : 1"
       inkscape:vp_y="0 : 1000 : 0"
       inkscape:vp_x="0 : 0.5 : 1"
       sodipodi:type="inkscape:persp3d" />
    <inkscape:perspective
       id="perspective3817-2"
       inkscape:persp3d-origin="0.5 : 0.33333333 : 1"
       inkscape:vp_z="1 : 0.5 : 1"
       inkscape:vp_y="0 : 1000 : 0"
       inkscape:vp_x="0 : 0.5 : 1"
       sodipodi:type="inkscape:persp3d" />
    <inkscape:perspective
       id="perspective3867"
       inkscape:persp3d-origin="0.5 : 0.33333333 : 1"
       inkscape:vp_z="1 : 0.5 : 1"
       inkscape:vp_y="0 : 1000 : 0"
       inkscape:vp_x="0 : 0.5 : 1"
       sodipodi:type="inkscape:persp3d" />
  </defs>
  <sodipodi:namedview
     id="base"
     pagecolor="#ffffff"
     bordercolor="#666666"
     borderopacity="1.0"
     inkscape:pageopacity="0.0"
     inkscape:pageshadow="2"
     inkscape:zoom="2.82"
     inkscape:cx="281.94932"
     inkscape:cy="676.46797"
     inkscape:document-units="px"
     inkscape:current-layer="layer1"
     showgrid="false"
     inkscape:snap-nodes="true"
     inkscape:window-width="1400"
     inkscape:window-height="1002"
     inkscape:window-x="-4"
     inkscape:window-y="25"
     inkscape:window-maximized="1" />
  <metadata
     id="metadata7">
    <rdf:RDF>
      <cc:Work
         rdf:about="">
        <dc:format>image/svg+xml</dc:format>
        <dc:type
           rdf:resource="http://purl.org/dc/dcmitype/StillImage" />
        <dc:title />
      </cc:Work>
    </rdf:RDF>
  </metadata>
  <g
     inkscape:label="Layer 1"
     inkscape:groupmode="layer"
     id="layer1">
    <g
       id="g3891">
      <path
         id="rect2824"
         d="m 200,289.36218 0,57.65625 38.59375,23.84375 L 200,394.70593 l 0,57.65625 52,0 0,-21.15625 84,0 0,21.15625 52,0 0,-57.65625 L 349.40625,370.86218 388,347.01843 l 0,-57.65625 -52,0 0,21.125 -84,0 0,-21.125 -52,0 z"
         style="fill:#141414;fill-opacity:1;stroke:none" />
      <text
         id="text2816"
         y="419.23019"
         x="242.10997"
         style="font-size:171.82130432px;font-style:normal;font-variant:normal;font-weight:normal;font-stretch:normal;fill:#2c7a54;fill-opacity:1;stroke:none;font-family:Monospace;-inkscape-font-specification:Monospace"
         xml:space="preserve"><tspan
           style="font-style:normal;font-variant:normal;font-weight:normal;font-stretch:normal;fill:#2c7a54;fill-opacity:1;font-family:Nimbus Mono L;-inkscape-font-specification:Nimbus Mono L"
           y="419.23019"
           x="242.10997"
           id="tspan2818"
           sodipodi:role="line">M</tspan></text>
      <g
         transform="translate(-2,0)"
         id="g4871">
        <path
           style="fill:#ebebeb;fill-opacity:1;stroke:none"
           d="m 278,386.36218 c -0.93198,0 -1.71554,0.6373 -1.9375,1.5 l -14.125,0 -1.9375,0 -20.5,12.46875 0,0.0312 0,36.0625 c -0.8627,0.22196 -1.5,1.00552 -1.5,1.9375 0,1.10457 0.89543,2 2,2 1.10457,0 2,-0.89543 2,-2 0,-0.93198 -0.6373,-1.71554 -1.5,-1.9375 l 0,-35.5 19.78125,-12.0625 15.78125,0 c 0.22196,0.8627 1.00552,1.5 1.9375,1.5 1.10457,0 2,-0.89543 2,-2 0,-1.10457 -0.89543,-2 -2,-2 z m 0,1 c 0.55228,0 1,0.44772 1,1 0,0.55228 -0.44772,1 -1,1 -0.55228,0 -1,-0.44772 -1,-1 0,-0.55228 0.44772,-1 1,-1 z m -38,50 c 0.55228,0 1,0.44772 1,1 0,0.55228 -0.44772,1 -1,1 -0.55228,0 -1,-0.44772 -1,-1 0,-0.55228 0.44772,-1 1,-1 z"
           id="rect3704-0-8" />
        <path
           style="fill:#ebebeb;fill-opacity:1;stroke:none"
           d="m 278,371.36218 c -0.93198,0 -1.71554,0.6373 -1.9375,1.5 l -14.21875,0 -1.84375,0 -0.0312,0 -44.46875,27.5 0,36.0625 c -0.8627,0.22196 -1.5,1.00552 -1.5,1.9375 0,1.10457 0.89543,2 2,2 1.10457,0 2,-0.89543 2,-2 0,-0.93198 -0.6373,-1.71554 -1.5,-1.9375 l 0,-35.5 43.71875,-27.0625 15.84375,0 c 0.22196,0.8627 1.00552,1.5 1.9375,1.5 1.10457,0 2,-0.89543 2,-2 0,-1.10457 -0.89543,-2 -2,-2 z m 0,1 c 0.55228,0 1,0.44772 1,1 0,0.55228 -0.44772,1 -1,1 -0.55228,0 -1,-0.44772 -1,-1 0,-0.55228 0.44772,-1 1,-1 z m -62,65 c 0.55228,0 1,0.44772 1,1 0,0.55228 -0.44772,1 -1,1 -0.55228,0 -1,-0.44772 -1,-1 0,-0.55228 0.44772,-1 1,-1 z"
           id="rect3704-0" />
        <path
           style="fill:#ebebeb;fill-opacity:1;stroke:none"
           d="m 278,376.36218 c -0.93198,0 -1.71554,0.6373 -1.9375,1.5 l -14.15625,0 -1.90625,0 -0.0312,0 -36.46875,22.5 0,36.0625 c -0.8627,0.22196 -1.5,1.00552 -1.5,1.9375 0,1.10457 0.89543,2 2,2 1.10457,0 2,-0.89543 2,-2 0,-0.93198 -0.6373,-1.71554 -1.5,-1.9375 l 0,-35.5 35.78125,-22.0625 15.78125,0 c 0.22196,0.8627 1.00552,1.5 1.9375,1.5 1.10457,0 2,-0.89543 2,-2 0,-1.10457 -0.89543,-2 -2,-2 z m 0,1 c 0.55228,0 1,0.44772 1,1 0,0.55228 -0.44772,1 -1,1 -0.55228,0 -1,-0.44772 -1,-1 0,-0.55228 0.44772,-1 1,-1 z m -54,60 c 0.55228,0 1,0.44772 1,1 0,0.55228 -0.44772,1 -1,1 -0.55228,0 -1,-0.44772 -1,-1 0,-0.55228 0.44772,-1 1,-1 z"
           id="rect3704-0-3" />
        <path
           style="fill:#ebebeb;fill-opacity:1;stroke:none"
           d="m 278,381.36218 c -0.93198,0 -1.71554,0.6373 -1.9375,1.5 l -14.1875,0 -1.875,0 -28.5,17.5 0,36.0625 c -0.8627,0.22196 -1.5,1.00552 -1.5,1.9375 0,1.10457 0.89543,2 2,2 1.10457,0 2,-0.89543 2,-2 0,-0.93198 -0.6373,-1.71554 -1.5,-1.9375 l 0,-35.5 27.75,-17.0625 15.8125,0 c 0.22196,0.8627 1.00552,1.5 1.9375,1.5 1.10457,0 2,-0.89543 2,-2 0,-1.10457 -0.89543,-2 -2,-2 z m 0,1 c 0.55228,0 1,0.44772 1,1 0,0.55228 -0.44772,1 -1,1 -0.55228,0 -1,-0.44772 -1,-1 0,-0.55228 0.44772,-1 1,-1 z m -46,55 c 0.55228,0 1,0.44772 1,1 0,0.55228 -0.44772,1 -1,1 -0.55228,0 -1,-0.44772 -1,-1 0,-0.55228 0.44772,-1 1,-1 z"
           id="rect3704-0-0" />
        <path
           style="fill:#ebebeb;fill-opacity:1;stroke:none"
           d="m 277.99995,355.36218 c -0.93198,0 -1.71554,-0.6373 -1.9375,-1.5 l -14.125,0 -1.9375,0 -20.5,-12.46875 0,-0.0312 0,-36.0625 c -0.8627,-0.22196 -1.5,-1.00552 -1.5,-1.9375 0,-1.10457 0.89543,-2 2,-2 1.10457,0 2,0.89543 2,2 0,0.93198 -0.6373,1.71554 -1.5,1.9375 l 0,35.5 19.78125,12.0625 15.78125,0 c 0.22196,-0.8627 1.00552,-1.5 1.9375,-1.5 1.10457,0 2,0.89543 2,2 0,1.10457 -0.89543,2 -2,2 z m 0,-1 c 0.55228,0 1,-0.44772 1,-1 0,-0.55228 -0.44772,-1 -1,-1 -0.55228,0 -1,0.44772 -1,1 0,0.55228 0.44772,1 1,1 z m -38,-50 c 0.55228,0 1,-0.44772 1,-1 0,-0.55228 -0.44772,-1 -1,-1 -0.55228,0 -1,0.44772 -1,1 0,0.55228 0.44772,1 1,1 z"
           id="rect3704-0-8-2" />
        <path
           style="fill:#ebebeb;fill-opacity:1;stroke:none"
           d="m 277.99995,370.36218 c -0.93198,0 -1.71554,-0.6373 -1.9375,-1.5 l -14.21875,0 -1.84375,0 -0.0312,0 -44.46875,-27.5 0,-36.0625 c -0.8627,-0.22196 -1.5,-1.00552 -1.5,-1.9375 0,-1.10457 0.89543,-2 2,-2 1.10457,0 2,0.89543 2,2 0,0.93198 -0.6373,1.71554 -1.5,1.9375 l 0,35.5 43.71875,27.0625 15.84375,0 c 0.22196,-0.8627 1.00552,-1.5 1.9375,-1.5 1.10457,0 2,0.89543 2,2 0,1.10457 -0.89543,2 -2,2 z m 0,-1 c 0.55228,0 1,-0.44772 1,-1 0,-0.55228 -0.44772,-1 -1,-1 -0.55228,0 -1,0.44772 -1,1 0,0.55228 0.44772,1 1,1 z m -62,-65 c 0.55228,0 1,-0.44772 1,-1 0,-0.55228 -0.44772,-1 -1,-1 -0.55228,0 -1,0.44772 -1,1 0,0.55228 0.44772,1 1,1 z"
           id="rect3704-0-03" />
        <path
           style="fill:#ebebeb;fill-opacity:1;stroke:none"
           d="m 277.99995,365.36218 c -0.93198,0 -1.71554,-0.6373 -1.9375,-1.5 l -14.15625,0 -1.90625,0 -0.0312,0 -36.46875,-22.5 0,-36.0625 c -0.8627,-0.22196 -1.5,-1.00552 -1.5,-1.9375 0,-1.10457 0.89543,-2 2,-2 1.10457,0 2,0.89543 2,2 0,0.93198 -0.6373,1.71554 -1.5,1.9375 l 0,35.5 35.78125,22.0625 15.78125,0 c 0.22196,-0.8627 1.00552,-1.5 1.9375,-1.5 1.10457,0 2,0.89543 2,2 0,1.10457 -0.89543,2 -2,2 z m 0,-1 c 0.55228,0 1,-0.44772 1,-1 0,-0.55228 -0.44772,-1 -1,-1 -0.55228,0 -1,0.44772 -1,1 0,0.55228 0.44772,1 1,1 z m -54,-60 c 0.55228,0 1,-0.44772 1,-1 0,-0.55228 -0.44772,-1 -1,-1 -0.55228,0 -1,0.44772 -1,1 0,0.55228 0.44772,1 1,1 z"
           id="rect3704-0-3-39" />
        <path
           style="fill:#ebebeb;fill-opacity:1;stroke:none"
           d="m 277.99995,360.36218 c -0.93198,0 -1.71554,-0.6373 -1.9375,-1.5 l -14.1875,0 -1.875,0 -28.5,-17.5 0,-36.0625 c -0.8627,-0.22196 -1.5,-1.00552 -1.5,-1.9375 0,-1.10457 0.89543,-2 2,-2 1.10457,0 2,0.89543 2,2 0,0.93198 -0.6373,1.71554 -1.5,1.9375 l 0,35.5 27.75,17.0625 15.8125,0 c 0.22196,-0.8627 1.00552,-1.5 1.9375,-1.5 1.10457,0 2,0.89543 2,2 0,1.10457 -0.89543,2 -2,2 z m 0,-1 c 0.55228,0 1,-0.44772 1,-1 0,-0.55228 -0.44772,-1 -1,-1 -0.55228,0 -1,0.44772 -1,1 0,0.55228 0.44772,1 1,1 z m -46,-55 c 0.55228,0 1,-0.44772 1,-1 0,-0.55228 -0.44772,-1 -1,-1 -0.55228,0 -1,0.44772 -1,1 0,0.55228 0.44772,1 1,1 z"
           id="rect3704-0-0-2" />
        <path
           style="fill:#ebebeb;fill-opacity:1;stroke:none"
           d="m 314.00005,386.36218 c 0.93198,0 1.71554,0.6373 1.9375,1.5 l 14.12499,0 1.9375,0 20.49998,12.46875 0,0.0312 0,36.0625 c 0.8627,0.22196 1.5,1.00552 1.5,1.9375 0,1.10457 -0.89543,2 -2,2 -1.10457,0 -2,-0.89543 -2,-2 0,-0.93198 0.6373,-1.71554 1.5,-1.9375 l 0,-35.5 -19.78123,-12.0625 -15.78124,0 c -0.22196,0.8627 -1.00552,1.5 -1.9375,1.5 -1.10457,0 -2,-0.89543 -2,-2 0,-1.10457 0.89543,-2 2,-2 z m 0,1 c -0.55228,0 -1,0.44772 -1,1 0,0.55228 0.44772,1 1,1 0.55228,0 1,-0.44772 1,-1 0,-0.55228 -0.44772,-1 -1,-1 z m 37.99997,50 c -0.55228,0 -1,0.44772 -1,1 0,0.55228 0.44772,1 1,1 0.55228,0 1,-0.44772 1,-1 0,-0.55228 -0.44772,-1 -1,-1 z"
           id="rect3704-0-8-4" />
        <path
           style="fill:#ebebeb;fill-opacity:1;stroke:none"
           d="m 314.00005,371.36218 c 0.93198,0 1.71554,0.6373 1.9375,1.5 l 14.21874,0 1.84375,0 0.0312,0 44.46871,27.5 0,36.0625 c 0.8627,0.22196 1.5,1.00552 1.5,1.9375 0,1.10457 -0.89543,2 -2,2 -1.10457,0 -1.99999,-0.89543 -1.99999,-2 0,-0.93198 0.6373,-1.71554 1.49999,-1.9375 l 0,-35.5 -43.71871,-27.0625 -15.84374,0 c -0.22196,0.8627 -1.00552,1.5 -1.9375,1.5 -1.10457,0 -2,-0.89543 -2,-2 0,-1.10457 0.89543,-2 2,-2 z m 0,1 c -0.55228,0 -1,0.44772 -1,1 0,0.55228 0.44772,1 1,1 0.55228,0 1,-0.44772 1,-1 0,-0.55228 -0.44772,-1 -1,-1 z m 61.99995,65 c -0.55228,0 -1,0.44772 -1,1 0,0.55228 0.44772,1 1,1 0.55228,0 1,-0.44772 1,-1 0,-0.55228 -0.44772,-1 -1,-1 z"
           id="rect3704-0-2" />
        <path
           style="fill:#ebebeb;fill-opacity:1;stroke:none"
           d="m 314.00005,376.36218 c 0.93198,0 1.71554,0.6373 1.9375,1.5 l 14.15624,0 1.90625,0 0.0312,0 36.46872,22.5 0,36.0625 c 0.8627,0.22196 1.5,1.00552 1.5,1.9375 0,1.10457 -0.89543,2 -2,2 -1.10457,0 -2,-0.89543 -2,-2 0,-0.93198 0.6373,-1.71554 1.5,-1.9375 l 0,-35.5 -35.78122,-22.0625 -15.78124,0 c -0.22196,0.8627 -1.00552,1.5 -1.9375,1.5 -1.10457,0 -2,-0.89543 -2,-2 0,-1.10457 0.89543,-2 2,-2 z m 0,1 c -0.55228,0 -1,0.44772 -1,1 0,0.55228 0.44772,1 1,1 0.55228,0 1,-0.44772 1,-1 0,-0.55228 -0.44772,-1 -1,-1 z m 53.99996,60 c -0.55228,0 -1,0.44772 -1,1 0,0.55228 0.44772,1 1,1 0.55228,0 1,-0.44772 1,-1 0,-0.55228 -0.44772,-1 -1,-1 z"
           id="rect3704-0-3-0" />
        <path
           style="fill:#ebebeb;fill-opacity:1;stroke:none"
           d="m 314.00005,381.36218 c 0.93198,0 1.71554,0.6373 1.9375,1.5 l 14.18749,0 1.875,0 28.49998,17.5 0,36.0625 c 0.8627,0.22196 1.49999,1.00552 1.49999,1.9375 0,1.10457 -0.89542,2 -1.99999,2 -1.10457,0 -2,-0.89543 -2,-2 0,-0.93198 0.6373,-1.71554 1.5,-1.9375 l 0,-35.5 -27.74998,-17.0625 -15.81249,0 c -0.22196,0.8627 -1.00552,1.5 -1.9375,1.5 -1.10457,0 -2,-0.89543 -2,-2 0,-1.10457 0.89543,-2 2,-2 z m 0,1 c -0.55228,0 -1,0.44772 -1,1 0,0.55228 0.44772,1 1,1 0.55228,0 1,-0.44772 1,-1 0,-0.55228 -0.44772,-1 -1,-1 z m 45.99997,55 c -0.55228,0 -1,0.44772 -1,1 0,0.55228 0.44772,1 1,1 0.55228,0 1,-0.44772 1,-1 0,-0.55228 -0.44772,-1 -1,-1 z"
           id="rect3704-0-0-7" />
        <path
           style="fill:#ebebeb;fill-opacity:1;stroke:none"
           d="m 314.0001,355.36218 c 0.93198,0 1.71554,-0.6373 1.9375,-1.5 l 14.12499,0 1.9375,0 20.49998,-12.46875 0,-0.0312 0,-36.0625 c 0.8627,-0.22196 1.5,-1.00552 1.5,-1.9375 0,-1.10457 -0.89543,-2 -2,-2 -1.10457,0 -2,0.89543 -2,2 0,0.93198 0.6373,1.71554 1.5,1.9375 l 0,35.5 -19.78123,12.0625 -15.78124,0 c -0.22196,-0.8627 -1.00552,-1.5 -1.9375,-1.5 -1.10457,0 -2,0.89543 -2,2 0,1.10457 0.89543,2 2,2 z m 0,-1 c -0.55228,0 -1,-0.44772 -1,-1 0,-0.55228 0.44772,-1 1,-1 0.55228,0 1,0.44772 1,1 0,0.55228 -0.44772,1 -1,1 z m 37.99997,-50 c -0.55228,0 -1,-0.44772 -1,-1 0,-0.55228 0.44772,-1 1,-1 0.55228,0 1,0.44772 1,1 0,0.55228 -0.44772,1 -1,1 z"
           id="rect3704-0-8-2-1" />
        <path
           style="fill:#ebebeb;fill-opacity:1;stroke:none"
           d="m 314.0001,370.36218 c 0.93198,0 1.71554,-0.6373 1.9375,-1.5 l 14.21874,0 1.84375,0 0.0312,0 44.46871,-27.5 0,-36.0625 c 0.8627,-0.22196 1.5,-1.00552 1.5,-1.9375 0,-1.10457 -0.89543,-2 -2,-2 -1.10457,0 -1.99999,0.89543 -1.99999,2 0,0.93198 0.6373,1.71554 1.49999,1.9375 l 0,35.5 -43.71871,27.0625 -15.84374,0 c -0.22196,-0.8627 -1.00552,-1.5 -1.9375,-1.5 -1.10457,0 -2,0.89543 -2,2 0,1.10457 0.89543,2 2,2 z m 0,-1 c -0.55228,0 -1,-0.44772 -1,-1 0,-0.55228 0.44772,-1 1,-1 0.55228,0 1,0.44772 1,1 0,0.55228 -0.44772,1 -1,1 z m 61.99995,-65 c -0.55228,0 -1,-0.44772 -1,-1 0,-0.55228 0.44772,-1 1,-1 0.55228,0 1,0.44772 1,1 0,0.55228 -0.44772,1 -1,1 z"
           id="rect3704-0-03-4" />
        <path
           style="fill:#ebebeb;fill-opacity:1;stroke:none"
           d="m 314.0001,365.36218 c 0.93198,0 1.71554,-0.6373 1.9375,-1.5 l 14.15624,0 1.90625,0 0.0312,0 36.46872,-22.5 0,-36.0625 c 0.8627,-0.22196 1.5,-1.00552 1.5,-1.9375 0,-1.10457 -0.89543,-2 -2,-2 -1.10457,0 -2,0.89543 -2,2 0,0.93198 0.6373,1.71554 1.5,1.9375 l 0,35.5 -35.78122,22.0625 -15.78124,0 c -0.22196,-0.8627 -1.00552,-1.5 -1.9375,-1.5 -1.10457,0 -2,0.89543 -2,2 0,1.10457 0.89543,2 2,2 z m 0,-1 c -0.55228,0 -1,-0.44772 -1,-1 0,-0.55228 0.44772,-1 1,-1 0.55228,0 1,0.44772 1,1 0,0.55228 -0.44772,1 -1,1 z m 53.99996,-60 c -0.55228,0 -1,-0.44772 -1,-1 0,-0.55228 0.44772,-1 1,-1 0.55228,0 1,0.44772 1,1 0,0.55228 -0.44772,1 -1,1 z"
           id="rect3704-0-3-39-4" />
        <path
           style="fill:#ebebeb;fill-opacity:1;stroke:none"
           d="m 314.0001,360.36218 c 0.93198,0 1.71554,-0.6373 1.9375,-1.5 l 14.18749,0 1.875,0 28.49998,-17.5 0,-36.0625 c 0.8627,-0.22196 1.49999,-1.00552 1.49999,-1.9375 0,-1.10457 -0.89542,-2 -1.99999,-2 -1.10457,0 -2,0.89543 -2,2 0,0.93198 0.6373,1.71554 1.5,1.9375 l 0,35.5 -27.74998,17.0625 -15.81249,0 c -0.22196,-0.8627 -1.00552,-1.5 -1.9375,-1.5 -1.10457,0 -2,0.89543 -2,2 0,1.10457 0.89543,2 2,2 z m 0,-1 c -0.55228,0 -1,-0.44772 -1,-1 0,-0.55228 0.44772,-1 1,-1 0.55228,0 1,0.44772 1,1 0,0.55228 -0.44772,1 -1,1 z m 45.99997,-55 c -0.55228,0 -1,-0.44772 -1,-1 0,-0.55228 0.44772,-1 1,-1 0.55228,0 1,0.44772 1,1 0,0.55228 -0.44772,1 -1,1 z"
           id="rect3704-0-0-2-0" />
      </g>
      <g
         id="g3881">
        <path
           sodipodi:type="arc"
           style="fill:#ebebeb;fill-opacity:1;stroke:none"
           id="path3598"
           sodipodi:cx="206.81818"
           sodipodi:cy="418.62091"
           sodipodi:rx="2.6223776"
           sodipodi:ry="2.6223776"
           d="m 209.44055,418.62091 a 2.6223776,2.6223776 0 1 1 -5.24475,0 2.6223776,2.6223776 0 1 1 5.24475,0 z"
           transform="matrix(0.76266666,0,0,0.76266666,48.266672,-23.906029)" />
        <path
           sodipodi:type="arc"
           style="fill:#ebebeb;fill-opacity:1;stroke:none"
           id="path3598-4"
           sodipodi:cx="206.81818"
           sodipodi:cy="418.62091"
           sodipodi:rx="2.6223776"
           sodipodi:ry="2.6223776"
           d="m 209.44055,418.62091 a 2.6223776,2.6223776 0 1 1 -5.24475,0 2.6223776,2.6223776 0 1 1 5.24475,0 z"
           transform="matrix(0.76266668,0,0,0.76266668,224.26667,127.09385)" />
        <path
           sodipodi:type="arc"
           style="fill:#ebebeb;fill-opacity:1;stroke:none"
           id="path3598-8"
           sodipodi:cx="206.81818"
           sodipodi:cy="418.62091"
           sodipodi:rx="2.6223776"
           sodipodi:ry="2.6223776"
           d="m 209.44055,418.62091 a 2.6223776,2.6223776 0 1 1 -5.24475,0 2.6223776,2.6223776 0 1 1 5.24475,0 z"
           transform="matrix(0.76266666,0,0,0.76266666,224.26667,-23.906029)" />
        <path
           sodipodi:type="arc"
           style="fill:#ebebeb;fill-opacity:1;stroke:none"
           id="path3598-9"
           sodipodi:cx="206.81818"
           sodipodi:cy="418.62091"
           sodipodi:rx="2.6223776"
           sodipodi:ry="2.6223776"
           d="m 209.44055,418.62091 a 2.6223776,2.6223776 0 1 1 -5.24475,0 2.6223776,2.6223776 0 1 1 5.24475,0 z"
           transform="matrix(0.76266666,0,0,0.76266666,48.266672,127.09397)" />
        <path
           sodipodi:type="arc"
           style="fill:#ebebeb;fill-opacity:1;stroke:none"
           id="path3598-8-1"
           sodipodi:cx="206.81818"
           sodipodi:cy="418.62091"
           sodipodi:rx="2.6223776"
           sodipodi:ry="2.6223776"
           d="m 209.44055,418.62091 a 2.6223776,2.6223776 0 1 1 -5.24475,0 2.6223776,2.6223776 0 1 1 5.24475,0 z"
           transform="matrix(0.76266666,0,0,0.76266666,136.26667,-2.7730291)" />
        <path
           sodipodi:type="arc"
           style="fill:#ebebeb;fill-opacity:1;stroke:none"
           id="path3598-8-0"
           sodipodi:cx="206.81818"
           sodipodi:cy="418.62091"
           sodipodi:rx="2.6223776"
           sodipodi:ry="2.6223776"
           d="m 209.44055,418.62091 a 2.6223776,2.6223776 0 1 1 -5.24475,0 2.6223776,2.6223776 0 1 1 5.24475,0 z"
           transform="matrix(0.76266666,0,0,0.76266666,185.67267,51.593971)" />
        <path
           sodipodi:type="arc"
           style="fill:#ebebeb;fill-opacity:1;stroke:none"
           id="path3598-8-6"
           sodipodi:cx="206.81818"
           sodipodi:cy="418.62091"
           sodipodi:rx="2.6223776"
           sodipodi:ry="2.6223776"
           d="m 209.44055,418.62091 a 2.6223776,2.6223776 0 1 1 -5.24475,0 2.6223776,2.6223776 0 1 1 5.24475,0 z"
           transform="matrix(0.76266666,0,0,0.76266666,86.860672,51.593971)" />
        <path
           sodipodi:type="arc"
           style="fill:#ebebeb;fill-opacity:1;stroke:none"
           id="path3598-8-12"
           sodipodi:cx="206.81818"
           sodipodi:cy="418.62091"
           sodipodi:rx="2.6223776"
           sodipodi:ry="2.6223776"
           d="m 209.44055,418.62091 a 2.6223776,2.6223776 0 1 1 -5.24475,0 2.6223776,2.6223776 0 1 1 5.24475,0 z"
           transform="matrix(0.76266666,0,0,0.76266666,136.26667,105.96197)" />
      </g>
    </g>
  </g>
</svg>
